<svg xmlns="http://www.w3.org/2000/svg" viewBox="0 0 960 640" role="img" aria-labelledby="title desc">
  <title id="title">写作桌面和代码窗口</title>
  <desc id="desc">一张展示笔记、代码窗口和博客卡片的扁平插画。</desc>
  <rect width="960" height="640" fill="#f7faf6"/>
  <rect x="72" y="78" width="816" height="484" rx="28" fill="#ffffff" stroke="#d9dfd9" stroke-width="3"/>
  <rect x="118" y="126" width="456" height="308" rx="18" fill="#18211f"/>
  <circle cx="150" cy="158" r="8" fill="#f0a68d"/>
  <circle cx="176" cy="158" r="8" fill="#e9c46a"/>
  <circle cx="202" cy="158" r="8" fill="#4eb9aa"/>
  <path d="M152 218h152M152 258h280M152 298h214M152 338h320" stroke="#8bd8cd" stroke-width="16" stroke-linecap="round"/>
  <path d="M152 388h120M292 388h122" stroke="#f0a68d" stroke-width="16" stroke-linecap="round"/>
  <rect x="620" y="126" width="218" height="132" rx="18" fill="#f2f7f5" stroke="#d9dfd9" stroke-width="3"/>
  <path d="M650 166h128M650 202h86" stroke="#14796f" stroke-width="15" stroke-linecap="round"/>
  <rect x="620" y="290" width="218" height="144" rx="18" fill="#fff8f2" stroke="#ead7c8" stroke-width="3"/>
  <path d="M650 330h148M650 368h106" stroke="#b55239" stroke-width="15" stroke-linecap="round"/>
  <rect x="188" y="476" width="584" height="36" rx="18" fill="#d9dfd9"/>
  <rect x="328" y="512" width="304" height="18" rx="9" fill="#14796f"/>
</svg>

