<svg xmlns="http://www.w3.org/2000/svg" class="icon icon-tabler icon-tabler-brain" width="24" height="24" viewBox="0 0 24 24" stroke-width="2" stroke="currentColor" fill="none" stroke-linecap="round" stroke-linejoin="round">
  <path stroke="none" d="M0 0h24v24H0z"/>
  <path d="M15.5 13a3.5 3.5 0 0 0 -3.5 3.5v1a3.5 3.5 0 0 0 7 0v-1.8" />
  <path d="M8.5 13a3.5 3.5 0 0 1 3.5 3.5v1a3.5 3.5 0 0 1 -7 0v-1.8" />
  <path d="M17.5 16a3.5 3.5 0 0 0 0 -7l-.5 -1.5a3.5 3.5 0 0 0 -6.5 0l-.5 1.5a3.5 3.5 0 0 0 0 7" />
  <path d="M12 4v-.5" />
  <path d="M12 8.5v-2" />
</svg>
