<svg xmlns="http://www.w3.org/2000/svg" class="icon icon-tabler icon-tabler-cpu" width="24" height="24" viewBox="0 0 24 24" stroke-width="2" stroke="currentColor" fill="none" stroke-linecap="round" stroke-linejoin="round">
  <path stroke="none" d="M0 0h24v24H0z"/>
  <path d="M5 5m-1 0a1 1 0 1 0 2 0a1 1 0 1 0 -2 0" />
  <path d="M9 5m-1 0a1 1 0 1 0 2 0a1 1 0 1 0 -2 0" />
  <path d="M15 5m-1 0a1 1 0 1 0 2 0a1 1 0 1 0 -2 0" />
  <path d="M19 5m-1 0a1 1 0 1 0 2 0a1 1 0 1 0 -2 0" />
  <path d="M5 9m-1 0a1 1 0 1 0 2 0a1 1 0 1 0 -2 0" />
  <path d="M19 9m-1 0a1 1 0 1 0 2 0a1 1 0 1 0 -2 0" />
  <path d="M5 15m-1 0a1 1 0 1 0 2 0a1 1 0 1 0 -2 0" />
  <path d="M19 15m-1 0a1 1 0 1 0 2 0a1 1 0 1 0 -2 0" />
  <path d="M5 19m-1 0a1 1 0 1 0 2 0a1 1 0 1 0 -2 0" />
  <path d="M9 19m-1 0a1 1 0 1 0 2 0a1 1 0 1 0 -2 0" />
  <path d="M15 19m-1 0a1 1 0 1 0 2 0a1 1 0 1 0 -2 0" />
  <path d="M19 19m-1 0a1 1 0 1 0 2 0a1 1 0 1 0 -2 0" />
  <path d="M8 7v-1a1 1 0 0 1 1 -1h6a1 1 0 0 1 1 1v1" />
  <path d="M8 17v1a1 1 0 0 0 1 1h6a1 1 0 0 0 1 -1v-1" />
  <path d="M16 8h1a1 1 0 0 1 1 1v6a1 1 0 0 1 -1 1h-1" />
  <path d="M8 8h-1a1 1 0 0 0 -1 1v6a1 1 0 0 0 1 1h1" />
</svg>
